<?xml version="1.0" encoding="utf-8"?>
<!DOCTYPE svg PUBLIC "-//W3C//DTD SVG 1.0//EN" "http://www.w3.org/TR/2001/REC-SVG-20010904/DTD/svg10.dtd">
<svg version="1.0" xmlns="http://www.w3.org/2000/svg" width="512px" height="512px" viewBox="0 0 512 512" preserveAspectRatio="xMidYMid meet">
 <g fill="#0d0e1a">
  <path d="M0 256 l0 -256 256 0 256 0 0 256 0 256 -256 0 -256 0 0 -256z m335.40 105.50 c4.25 -7.30 16.40 -28.10 26.95 -46.25 10.60 -18.15 22.95 -39.35 27.45 -47.10 l8.20 -14.10 -8.60 -14.90 c-16.15 -28 -33.65 -58.25 -41.75 -72.15 -3.25 -5.65 -9.20 -15.80 -13.15 -22.65 l-7.15 -12.35 -69.50 0.10 -69.50 0.15 -4.25 7.25 c-2.35 4 -8.35 14.35 -13.35 23 -25.10 43.35 -30.25 52.25 -41.05 70.80 -6.45 11.05 -11.70 20.35 -11.70 20.65 0 0.35 5.80 10.55 12.85 22.70 7.05 12.15 22.25 38.30 33.70 58.10 11.50 19.80 21.45 36.95 22.15 38.15 l1.30 2.10 69.85 -0.10 69.85 -0.15 7.70 -13.25z m-223.20 -28.85 l4.35 -7.60 -6.85 -11.65 c-3.75 -6.40 -8.35 -14.25 -10.20 -17.40 -18.20 -30.85 -23.50 -40.30 -23.50 -41.95 0 -1.90 -1.25 0.35 23.25 -41.30 8.75 -14.85 16.20 -27.65 16.60 -28.50 0.70 -1.50 0.65 -1.60 -6.20 -13.25 -3.80 -6.45 -8.25 -14.05 -9.90 -16.90 -1.60 -2.80 -3.15 -5.05 -3.35 -5 -0.35 0.15 -21.75 36.65 -42.75 72.90 -4.55 7.85 -10.60 18.25 -13.45 23.15 l-5.20 8.90 7.10 12.10 c3.90 6.65 12.40 21.20 18.90 32.35 6.55 11.15 14.50 24.75 17.75 30.25 3.20 5.50 8.55 14.65 11.85 20.35 l6.05 10.35 5.55 -9.60 c3.10 -5.30 7.55 -13 10 -17.20z m320.65 2.60 c7.70 -13.20 17.35 -29.60 21.40 -36.50 4.05 -6.85 10.95 -18.55 15.25 -26 4.35 -7.40 8.55 -14.65 9.35 -16.05 l1.50 -2.55 -5.10 -8.70 c-7.10 -12.15 -47.60 -81.75 -52.20 -89.80 -2.10 -3.65 -3.95 -6.65 -4.10 -6.65 -0.15 0 -2.60 4 -5.45 8.90 -2.85 4.85 -7.25 12.35 -9.85 16.65 -2.55 4.30 -4.65 8.05 -4.65 8.35 0 0.30 4.90 8.85 10.85 18.95 28.65 48.60 29.65 50.40 29.65 52.10 0 2 -0.20 2.40 -8 15.55 -3.50 5.90 -8.90 15.15 -12 20.50 -6.20 10.70 -11.85 20.25 -17.10 28.90 -1.85 3.05 -3.40 5.80 -3.40 6.10 0 0.25 1.30 2.70 2.90 5.40 7.30 12.65 16.85 28.95 16.90 28.90 0.05 0 6.35 -10.85 14.05 -24.05z"/>
  <path d="M207.80 339.20 c-1.15 -1.10 -9.20 -14.85 -31.05 -52.70 -3.25 -5.65 -8.60 -14.85 -11.85 -20.50 -4.25 -7.40 -5.90 -10.70 -5.90 -11.90 0 -2.10 0.50 -3.10 10.65 -20.35 14.90 -25.45 18.55 -31.65 28.05 -48 5.15 -8.80 9.50 -16.15 9.70 -16.35 0.20 -0.20 22.95 -0.40 50.60 -0.45 l50.25 -0.05 10.40 17.90 c5.75 9.90 16.60 28.55 24.15 41.50 12.30 21.15 13.70 23.80 13.70 25.75 0 2 -1.75 5.15 -17.30 31.95 -9.50 16.35 -20.20 34.80 -23.80 41 -3.60 6.20 -6.90 11.65 -7.30 12.15 -0.70 0.80 -3.75 0.85 -50.15 0.85 -44.45 0 -49.45 -0.10 -50.15 -0.80z"/>
 </g>
 <g fill="#00ffd1">
  <path d="M185.20 374.40 c-0.70 -1.20 -10.65 -18.35 -22.15 -38.15 -11.45 -19.80 -26.65 -45.90 -33.70 -58.05 -7 -12.10 -13.05 -22.60 -13.35 -23.25 -0.55 -1.15 0.25 -2.65 9.05 -17.75 8.90 -15.25 21.65 -37.20 44.20 -76.20 5 -8.65 11 -19 13.35 -23 l4.25 -7.25 71 -0.15 71 -0.10 7.15 12.35 c3.95 6.85 9.90 17 13.15 22.65 5.30 9.10 15.80 27.25 28.85 49.75 18.75 32.45 22.10 38.40 21.85 39.20 -0.25 0.95 -6.30 11.40 -36 62.30 -10.55 18.15 -22.70 38.95 -26.95 46.25 l-7.70 13.25 -71.35 0.15 -71.35 0.10 -1.30 -2.10z m121.40 -36.75 c0.40 -0.50 3.55 -5.75 7 -11.65 33.90 -58.30 41.05 -70.75 41.25 -71.55 0.15 -0.60 -4.65 -9.35 -13.50 -24.55 -7.60 -13 -18.45 -31.70 -24.20 -41.55 l-10.40 -17.90 -48.75 0.05 c-26.80 0 -48.90 0.20 -49.10 0.40 -0.20 0.20 -4.55 7.55 -9.70 16.35 -9.50 16.35 -13.15 22.55 -28.05 48 -4.70 8 -9 15.50 -9.60 16.70 l-1.15 2.15 6.25 10.85 c33.80 58.55 41.35 71.50 42.65 72.75 0.70 0.70 5.55 0.80 48.65 0.80 45 0 47.95 -0.05 48.65 -0.85z"/>
  <path d="M89.65 351.60 c-3.60 -6.25 -9.20 -15.85 -12.40 -21.35 -3.25 -5.50 -11.20 -19.10 -17.75 -30.25 -6.50 -11.15 -15.15 -25.90 -19.15 -32.80 -4.05 -6.90 -7.35 -12.80 -7.35 -13.15 0 -0.35 2.45 -4.85 5.45 -9.95 3 -5.15 9 -15.55 13.40 -23.10 4.35 -7.55 15.95 -27.40 25.70 -44.10 20.40 -35.05 18.70 -33 22.40 -26.50 1.25 2.10 6.05 10.30 10.65 18.20 l8.45 14.35 -3.10 5.40 c-1.70 2.95 -9.40 16.10 -17.10 29.15 -23.30 39.55 -21.50 36.30 -20.80 37.60 0.65 1.30 18.50 31.80 30.70 52.65 4.35 7.45 8.45 14.40 9.05 15.50 l1.10 2 -10.45 18 c-5.70 9.90 -10.65 18.40 -10.95 18.90 -0.25 0.45 -0.70 0.85 -0.90 0.85 -0.20 0 -3.30 -5.15 -6.95 -11.40z"/>
  <path d="M417.65 361.40 c-1.80 -2.95 -17.90 -30.55 -19.60 -33.55 l-1.65 -2.90 5.10 -8.60 c2.85 -4.75 5.65 -9.40 6.25 -10.35 0.60 -0.95 4.45 -7.50 8.50 -14.50 4.05 -7 10.25 -17.60 13.75 -23.50 3.50 -5.90 6.75 -11.50 7.20 -12.40 l0.85 -1.65 -6.35 -10.85 c-8.65 -14.75 -10.85 -18.50 -23.45 -39.85 -6 -10.15 -11.10 -18.95 -11.35 -19.55 -0.40 -0.85 0.45 -2.60 5 -10.25 3.05 -5.05 7.85 -13.25 10.75 -18.20 3.45 -5.90 5.60 -9.05 6.20 -9.15 0.70 -0.10 1.85 1.55 5.20 7.25 4 6.90 28.45 48.90 49.05 84.30 4.90 8.45 9.05 15.70 9.20 16.10 0.20 0.55 -13.40 24.65 -19.30 34.25 -2.10 3.40 -21.50 36.50 -33 56.25 -5.60 9.65 -10.45 17.80 -10.75 18.15 -0.50 0.55 -0.80 0.35 -1.60 -1z"/>
 </g>
</svg>